<svg width="60" height="40" xmlns="http://www.w3.org/2000/svg">

 <g>
  <title>Layer 1</title>
  <path stroke="null" id="svg_1" d="m46.58287,22.55693c-1.60678,0.00898 -2.99813,0.39496 -4.16506,0.96945c-0.43087,-0.85276 -0.86174,-1.5978 -0.93355,-2.15434c-0.08079,-0.6463 -0.17953,-1.04127 -0.08079,-1.81324s0.54756,-1.8671 0.54756,-1.95686c-0.00898,-0.08079 -0.09874,-0.47575 -1.02331,-0.48473c-0.92457,-0.00898 -1.72347,0.17953 -1.81324,0.42189s-0.26929,0.7989 -0.38599,1.37339c-0.16158,0.84378 -1.84914,3.83293 -2.80962,5.40381c-0.31417,-0.6104 -0.58347,-1.14898 -0.63733,-1.57985c-0.08079,-0.6463 -0.17953,-1.04127 -0.08079,-1.81324s0.54756,-1.8671 0.54756,-1.95686c-0.00898,-0.08079 -0.09874,-0.47575 -1.02331,-0.48473c-0.92457,-0.00898 -1.72347,0.17953 -1.81324,0.42189s-0.1885,0.81685 -0.38599,1.37339c-0.1885,0.55654 -2.43261,5.54743 -3.01608,6.84901c-0.29622,0.66426 -0.55654,1.19386 -0.74504,1.55292s-0.00898,0.02693 -0.02693,0.06283c-0.16158,0.3052 -0.25134,0.47575 -0.25134,0.47575l0,0.00898c-0.12567,0.22441 -0.26032,0.43984 -0.32315,0.43984c-0.04488,0 -0.13465,-0.60142 0.01795,-1.42725c0.33213,-1.73245 1.14001,-4.43436 1.13103,-4.5331c0,-0.04488 0.1526,-0.52063 -0.52063,-0.763c-0.65528,-0.24236 -0.88867,0.16158 -0.94252,0.16158c-0.05386,0 -0.09874,0.14362 -0.09874,0.14362s0.72709,-3.04301 -1.39135,-3.04301c-1.32851,0 -3.1597,1.4452 -4.06632,2.76474c-0.57449,0.31417 -1.79529,0.97843 -3.08789,1.68757c-0.4937,0.26929 -1.00536,0.55654 -1.49009,0.81685l-0.09874,-0.10772c-2.56726,-2.73781 -7.31579,-4.67672 -7.11831,-8.35705c0.07181,-1.33749 0.53859,-4.86522 9.12005,-9.138c7.02854,-3.50081 12.65676,-2.54033 13.63519,-0.40394c1.39135,3.05199 -3.0071,8.72509 -10.31391,9.54194c-2.78269,0.31417 -4.24585,-0.763 -4.61388,-1.16694c-0.38599,-0.42189 -0.43984,-0.43984 -0.58347,-0.35906c-0.23339,0.12567 -0.08976,0.50268 0,0.72709c0.21543,0.56551 1.11308,1.57087 2.63907,2.07355c1.33749,0.43984 4.60491,0.68221 8.55454,-0.84378c4.42538,-1.7145 7.8813,-6.472 6.86697,-10.44856c-1.03229,-4.04837 -7.74666,-5.37688 -14.09299,-3.1238c-3.77908,1.34646 -7.87233,3.44695 -10.81659,6.20271c-3.50081,3.26742 -4.05735,6.12192 -3.82396,7.30681c0.81685,4.2279 6.64256,6.98366 8.97643,9.02131c-0.11669,0.06283 -0.22441,0.12567 -0.32315,0.17953c-1.16694,0.57449 -5.61027,2.89939 -6.72334,5.35893c-1.2567,2.78269 0.19748,4.78444 1.16694,5.05373c2.99813,0.83481 6.06806,-0.66426 7.7287,-3.13277c1.65166,-2.46852 1.45418,-5.6731 0.69118,-7.13626l-0.02693,-0.05386l0.9156,-0.53859c0.59244,-0.35008 1.17591,-0.67323 1.68757,-0.9515c-0.28725,0.78095 -0.4937,1.70552 -0.60142,3.05199c-0.12567,1.57985 0.52063,3.62648 1.37339,4.43436c0.37701,0.35008 0.82583,0.35906 1.1041,0.35906c0.98741,0 1.43623,-0.81685 1.92993,-1.79529c0.6104,-1.19386 1.14898,-2.57623 1.14898,-2.57623s-0.67323,3.74317 1.16694,3.74317c0.67323,0 1.34646,-0.87071 1.65166,-1.31953l0,0.00898s0.01795,-0.02693 0.05386,-0.08976c0.07181,-0.10772 0.10772,-0.17055 0.10772,-0.17055l0,-0.01795c0.26929,-0.46677 0.87071,-1.53497 1.76836,-3.30333c1.15796,-2.28001 2.27104,-5.13452 2.27104,-5.13452s0.10772,0.70016 0.43984,1.84914c0.19748,0.68221 0.62835,1.42725 0.96048,2.15434c-0.26929,0.37701 -0.43087,0.59244 -0.43087,0.59244l0.00898,0.00898c-0.21543,0.28725 -0.4578,0.59244 -0.70914,0.89764c-0.9156,1.09512 -2.01072,2.34285 -2.15434,2.7019c-0.17055,0.42189 -0.13465,0.73607 0.19748,0.98741c0.24236,0.17953 0.67323,0.21543 1.13103,0.17953c0.82583,-0.05386 1.40032,-0.26032 1.68757,-0.38599c0.44882,-0.16158 0.96048,-0.40394 1.45418,-0.763c0.89764,-0.66426 1.4452,-1.60678 1.39135,-2.86348c-0.02693,-0.69118 -0.25134,-1.37339 -0.52961,-2.0197c0.08079,-0.11669 0.16158,-0.23339 0.24236,-0.35906c1.41828,-2.07355 2.5134,-4.35357 2.5134,-4.35357s0.10772,0.70016 0.43984,1.84914c0.17055,0.58347 0.51166,1.22079 0.81685,1.84914c-1.32851,1.08615 -2.16332,2.34285 -2.45056,3.16868c-0.52961,1.52599 -0.11669,2.21718 0.66426,2.37875c0.35008,0.07181 0.85276,-0.08976 1.22977,-0.25134c0.46677,-0.1526 1.03229,-0.41292 1.55292,-0.7989c0.89764,-0.66426 1.75938,-1.58883 1.7145,-2.83655c-0.02693,-0.57449 -0.17953,-1.14001 -0.38599,-1.67859c1.13103,-0.46677 2.59419,-0.73607 4.45231,-0.51166c3.99451,0.46677 4.78444,2.96222 4.63184,4.00349c-0.1526,1.04127 -0.98741,1.61576 -1.26568,1.79529c-0.27827,0.17055 -0.36803,0.23339 -0.3411,0.35906c0.03591,0.1885 0.16158,0.17953 0.40394,0.14362c0.33213,-0.05386 2.10048,-0.85276 2.1723,-2.77372c0.10772,-2.46852 -2.23513,-5.16145 -6.39122,-5.13452zm-30.8071,10.38573c-1.31953,1.4452 -3.17766,1.99277 -3.96758,1.52599c-0.85276,-0.4937 -0.52063,-2.62112 1.1041,-4.15609c0.98741,-0.93355 2.27104,-1.79529 3.11482,-2.32489c0.1885,-0.11669 0.47575,-0.28725 0.81685,-0.4937c0.05386,-0.03591 0.08976,-0.05386 0.08976,-0.05386c0.06283,-0.03591 0.13465,-0.08079 0.20646,-0.12567c0.60142,2.19025 0.02693,4.1112 -1.36442,5.62822zm9.64966,-6.56177c-0.4578,1.12205 -1.42725,4.00349 -2.01072,3.84191c-0.50268,-0.13465 -0.80788,-2.31592 -0.09874,-4.47026c0.35906,-1.08615 1.12205,-2.37875 1.57087,-2.88143c0.72709,-0.80788 1.51702,-1.07717 1.7145,-0.74504c0.23339,0.43087 -0.88867,3.55467 -1.17591,4.25483zm7.96209,3.80601c-0.19748,0.09874 -0.37701,0.17055 -0.4578,0.11669c-0.06283,-0.03591 0.08079,-0.17055 0.08079,-0.17055s0.99638,-1.06819 1.39135,-1.5619c0.22441,-0.28725 0.4937,-0.61937 0.78095,-0.99638l0,0.10772c0,1.29261 -1.23875,2.15434 -1.79529,2.50442zm6.13988,-1.40032c-0.14362,-0.10772 -0.12567,-0.43984 0.35906,-1.48111c0.1885,-0.41292 0.61937,-1.1041 1.36442,-1.75938c0.08976,0.26929 0.14362,0.52961 0.13465,0.77197c-0.00898,1.61576 -1.15796,2.21718 -1.85812,2.46852z" fill="#CF649A"/>
 </g>
</svg>